<?xml version="1.0" encoding="UTF-8"?><svg id="uuid-4472ae59-b89d-4bd7-8d00-c63c26275493" xmlns="http://www.w3.org/2000/svg" viewBox="0 0 1762.52944 567.804"><defs><style>.uuid-3f01ce79-3553-484b-8283-3a77f978b735{fill:#00bdff;}.uuid-07f77542-148c-4bd9-b13b-a893a53c2b5f{fill:#5255ac;}.uuid-f7d14e0a-7b42-4ded-b048-89ca38bf1d1d{fill:#bc1d19;}.uuid-761eaf23-e662-4d85-846d-f5181b948600{fill:#0e5c77;}.uuid-66bd84c2-7d01-49d1-819a-747810f81c34{fill:#ff7212;}.uuid-f1e4b2cb-37d6-4511-b2c8-88ab6a5ab517{fill:#438ce3;}.uuid-14e6392a-a913-4f99-b819-b37903ac0123{fill:#cf4339;}.uuid-28eacac6-7731-4216-a542-7f5892c6ac65{fill:#f0c722;}.uuid-26cfdebb-3154-4edc-acf8-cb9afa94c550{fill:#f0ca30;}.uuid-20c6c303-7d0d-4863-abdf-1bd32961bf4d{fill:#b51f6a;}.uuid-a9cb178e-5c8e-4f16-aec0-f67cd611a1f9{fill:#dc4053;}.uuid-4e013940-853b-4647-a342-8a89ed3fd961{fill:#ffc221;}.uuid-ac11d140-88cd-4707-be31-5fb4ab17d52f{fill:#00a029;}.uuid-6c058cde-0f2d-4666-b6c1-513f669186d5{fill:#00999c;}.uuid-4f44666a-3212-4f00-b7ff-ba6141e39c50{fill:#0089c6;}.uuid-13735eed-681e-42c1-82f6-9bea9521f1d9{fill:#192b6d;}.uuid-c79d3dde-1dba-4d20-8dd9-62418bd4949b{fill:#e79a9a;}.uuid-7c28f2e4-7aaa-4e3f-869e-3486bd2ade3e{fill:none;}.uuid-d6b5f8bb-10ef-43c4-8f7d-e844ea9398ab{fill:#ff1648;}.uuid-1e27557e-1b8b-440d-9d13-a9258d9b5576{fill:#ff5202;}.uuid-91936ca5-8031-492e-80a8-a2433e8aca85{fill:#ff8c8c;}.uuid-f4da094c-b46e-4081-974b-212dc4c4375c{fill:#478203;}.uuid-7dc38163-7e40-4944-8ccf-fd82120c2b23{fill:#3f488f;}.uuid-e6e35d64-72c5-4aed-bb2a-568fd6eb708a{fill:#841d4d;}.uuid-666c40a7-0668-47d0-bc2a-febc2bf0a545{fill:#f93568;}.uuid-388c484d-0ae8-403a-be68-2235b8c2066e{fill:#9cc2ff;}.uuid-f60fb1e8-e379-4f93-bfdc-96d8f1c14816{fill:#b52d4b;}.uuid-0021ed46-4ffa-4905-89b0-08b92dbc4ee8{fill:#0e5b25;}.uuid-71867f00-5d58-4da4-a5de-de4ab3c2cd4c{fill:#ea8518;}</style></defs><g><path class="uuid-f60fb1e8-e379-4f93-bfdc-96d8f1c14816" d="M544.65587,394.6605l-18.781,117.7849h-80.485L532.50807,0h106.3272l85.8782,512.4454h-81.2711l-18.0841-117.7849h-80.7024Zm40.6034-277.2847l-28.6282,202.0334h57.2565l-28.6283-202.0334Z"/><path class="uuid-6c058cde-0f2d-4666-b6c1-513f669186d5" d="M405.51737,327.1429c33.1413,6.3391,58.9991,42.7078,61.5807,74.8333,1.2302,15.3093,6.0324,30.8532,12.926,44.5182-1.3441-2.6643-51.7791-22.3268-62.2717-74.4816-1.9442-9.6643-5.6169-18.8974-8.2517-28.3983-.3266-1.1775-3.5204-16.3846-3.9833-16.4716Z"/><g><polygon class="uuid-7c28f2e4-7aaa-4e3f-869e-3486bd2ade3e" points="585.25927 117.3758 573.77357 198.4321 573.77297 198.4364 556.63107 319.4092 562.53207 319.4092 613.88757 319.4092 610.30527 294.1283 593.49807 175.5181 585.25927 117.3758"/><path class="uuid-26cfdebb-3154-4edc-acf8-cb9afa94c550" d="M573.39757,0h-40.8895l-7.6737,45.138c13.9308-16.8227,30.3547-32.7196,48.5632-45.138Z"/><path class="uuid-c79d3dde-1dba-4d20-8dd9-62418bd4949b" d="M573.77297,198.4364c-.3326,.3645-.663,.7228-.9945,1.0838-.3088,.3365-.617,.6713-.9249,1.0048-.4624,.5009-.9241,1-1.3842,1.4942-.2853,.3063-.5693,.6091-.8536,.9129-.481,.5138-.9622,1.0281-1.4407,1.5347-.1612,.1707-.3212,.3377-.4821,.5076-1.117,1.179-2.2273,2.3385-3.3306,3.4784-.1373,.1418-.2755,.2862-.4125,.4274-.5033,.5186-1.0038,1.0293-1.5042,1.5398-.2356,.2404-.4716,.4819-.7066,.7205-.4881,.4957-.9743,.9862-1.4596,1.4743-.2372,.2385-.4741,.4762-.7106,.7129-.4904,.4909-.9798,.979-1.4674,1.4621-.208,.2061-.415,.4097-.6224,.6144-.5207,.5137-1.0408,1.0263-1.5581,1.5312-.0342,.0334-.0682,.0661-.1024,.0995-1.8578,1.8122-3.693,3.5661-5.5071,5.2677-.1333,.125-.2671,.2513-.4001,.3757-.5251,.4911-1.0478,.9763-1.5691,1.4583-.1583,.1463-.3164,.2924-.4743,.4379-.522,.4808-1.0423,.9578-1.5604,1.4296-.1289,.1173-.2572,.2333-.3858,.3501-2.4334,2.2092-4.825,4.3203-7.173,6.3353-.0219,.0188-.0439,.038-.0658,.0567-.5622,.4823-1.1213,.9578-1.6785,1.4292-.0784,.0663-.1568,.1327-.2351,.1988-.5536,.4675-1.105,.93-1.6536,1.3868-.0466,.0389-.0931,.0773-.1397,.1161-2.9649,2.466-5.8568,4.7789-8.6731,6.9474-.0021,.0017-.0042,.0034-.0064,.005v0c1.2086,25.7803,6.1246,53.8328,15.7554,84.3134,0,0,7.9198-2.3753,20.4801-7.7337h-5.901l17.1419-120.9728Z"/><path class="uuid-c79d3dde-1dba-4d20-8dd9-62418bd4949b" d="M639.97657,111.3087c.3855-.5924,.7721-1.1909,1.1584-1.7876-.3863,.5967-.7729,1.1952-1.1584,1.7876Z"/><path class="uuid-c79d3dde-1dba-4d20-8dd9-62418bd4949b" d="M613.38407,149.805c.4042-.5493,.809-1.1009,1.2144-1.6551-.4054,.5542-.8102,1.1058-1.2144,1.6551Z"/><path class="uuid-c79d3dde-1dba-4d20-8dd9-62418bd4949b" d="M610.75567,153.3553c.3955-.5306,.7923-1.0664,1.1889-1.6016-.3966,.5352-.7934,1.0711-1.1889,1.6016Z"/><path class="uuid-c79d3dde-1dba-4d20-8dd9-62418bd4949b" d="M618.86957,142.2489c.3423-.4777,.6835-.9509,1.0266-1.4319-.3431,.481-.6843,.9543-1.0266,1.4319Z"/><path class="uuid-c79d3dde-1dba-4d20-8dd9-62418bd4949b" d="M608.15207,156.8274c.3624-.4799,.7266-.9677,1.09-1.4514-.3633,.4837-.7276,.9715-1.09,1.4514Z"/><path class="uuid-c79d3dde-1dba-4d20-8dd9-62418bd4949b" d="M616.05757,146.147c.3955-.5445,.7906-1.0879,1.1872-1.637-.3966,.5491-.7918,1.0926-1.1872,1.637Z"/><path class="uuid-c79d3dde-1dba-4d20-8dd9-62418bd4949b" d="M594.31687,174.5144c.4003-.4934,.8027-.9946,1.2043-1.4928-.4016,.4982-.8041,.9994-1.2043,1.4928Z"/><path class="uuid-c79d3dde-1dba-4d20-8dd9-62418bd4949b" d="M599.35597,168.2165c.4159-.5264,.8322-1.0549,1.2494-1.5865-.4172,.5316-.8335,1.0601-1.2494,1.5865Z"/><path class="uuid-c79d3dde-1dba-4d20-8dd9-62418bd4949b" d="M596.82567,171.3998c.4135-.5165,.8283-1.0381,1.2431-1.5598-.4148,.5217-.8297,1.0433-1.2431,1.5598Z"/><path class="uuid-c79d3dde-1dba-4d20-8dd9-62418bd4949b" d="M622.45427,137.208c.3353-.4759,.6723-.9597,1.0083-1.4389-.336,.4792-.673,.963-1.0083,1.4389Z"/><path class="uuid-c79d3dde-1dba-4d20-8dd9-62418bd4949b" d="M601.93457,164.9293c.4043-.5187,.8082-1.0362,1.2137-1.5598-.4055,.5236-.8095,1.0411-1.2137,1.5598Z"/><path class="uuid-c79d3dde-1dba-4d20-8dd9-62418bd4949b" d="M604.64417,161.4281c.3546-.4614,.708-.9181,1.0636-1.3832-.3556,.4651-.709,.9218-1.0636,1.3832Z"/><path class="uuid-c79d3dde-1dba-4d20-8dd9-62418bd4949b" d="M642.77287,106.9835c.4038-.6282,.8082-1.2594,1.2129-1.8924-.4046,.6329-.8091,1.2642-1.2129,1.8924Z"/><path class="uuid-c79d3dde-1dba-4d20-8dd9-62418bd4949b" d="M648.59397,97.8119c.3439-.5487,.6872-1.0931,1.0318-1.6451-.3447,.552-.6879,1.0964-1.0318,1.6451Z"/><path class="uuid-c79d3dde-1dba-4d20-8dd9-62418bd4949b" d="M645.61837,102.5285c.3952-.6225,.7903-1.2443,1.1864-1.8713-.396,.6269-.7912,1.2489-1.1864,1.8713Z"/><path class="uuid-c79d3dde-1dba-4d20-8dd9-62418bd4949b" d="M652.38137,91.7273c.2615-.4237,.5242-.8549,.786-1.2806-.2618,.4257-.5245,.8569-.786,1.2806Z"/><path class="uuid-c79d3dde-1dba-4d20-8dd9-62418bd4949b" d="M625.14487,133.3631c.3884-.5582,.7779-1.122,1.1672-1.6846-.3893,.5626-.7788,1.1264-1.1672,1.6846Z"/><path class="uuid-c79d3dde-1dba-4d20-8dd9-62418bd4949b" d="M637.20927,115.5375c.2971-.451,.5957-.9096,.8932-1.3631-.2976,.4535-.5961,.9121-.8932,1.3631Z"/><path class="uuid-c79d3dde-1dba-4d20-8dd9-62418bd4949b" d="M630.62847,125.3784c.3918-.5775,.7835-1.1542,1.1762-1.7361-.3927,.582-.7844,1.1586-1.1762,1.7361Z"/><path class="uuid-c79d3dde-1dba-4d20-8dd9-62418bd4949b" d="M627.86597,129.4258c.3996-.5816,.7997-1.1658,1.2003-1.752-.4005,.5862-.8007,1.1704-1.2003,1.752Z"/><path class="uuid-c79d3dde-1dba-4d20-8dd9-62418bd4949b" d="M633.51707,121.0924c.3438-.5135,.6867-1.0226,1.0313-1.5394-.3445,.5169-.6875,1.026-1.0313,1.5394Z"/><path class="uuid-c79d3dde-1dba-4d20-8dd9-62418bd4949b" d="M546.30757,226.0041c.5181-.4718,1.0384-.9488,1.5604-1.4296-.5219,.4808-1.0423,.9578-1.5604,1.4296Z"/><path class="uuid-c79d3dde-1dba-4d20-8dd9-62418bd4949b" d="M548.34227,224.1366c.5213-.482,1.044-.9672,1.5691-1.4583-.5251,.4911-1.0478,.9763-1.5691,1.4583Z"/><path class="uuid-c79d3dde-1dba-4d20-8dd9-62418bd4949b" d="M555.92097,216.9354c.5173-.5049,1.0374-1.0175,1.5581-1.5312-.5206,.5136-1.0408,1.0263-1.5581,1.5312Z"/><path class="uuid-c79d3dde-1dba-4d20-8dd9-62418bd4949b" d="M550.31147,222.3026c1.8141-1.7016,3.6493-3.4555,5.5071-5.2677-1.8577,1.8121-3.6931,3.5663-5.5071,5.2677Z"/><path class="uuid-c79d3dde-1dba-4d20-8dd9-62418bd4949b" d="M560.27947,212.6148c.4853-.4881,.9715-.9786,1.4596-1.4743-.4881,.4956-.9743,.9863-1.4596,1.4743Z"/><path class="uuid-c79d3dde-1dba-4d20-8dd9-62418bd4949b" d="M535.11577,235.761c.5486-.4568,1.1-.9193,1.6536-1.3868-.5536,.4674-1.105,.93-1.6536,1.3868Z"/><path class="uuid-c79d3dde-1dba-4d20-8dd9-62418bd4949b" d="M562.44567,210.42c.5004-.5105,1.0009-1.0212,1.5042-1.5398-.5033,.5185-1.0038,1.0293-1.5042,1.5398Z"/><path class="uuid-c79d3dde-1dba-4d20-8dd9-62418bd4949b" d="M526.30297,242.8245c2.8163-2.1685,5.7082-4.4814,8.6731-6.9474-2.9647,2.4658-5.8569,4.779-8.6731,6.9474Z"/><path class="uuid-c79d3dde-1dba-4d20-8dd9-62418bd4949b" d="M537.00447,234.1754c.5572-.4714,1.1163-.9469,1.6785-1.4292-.5622,.4822-1.1214,.9578-1.6785,1.4292Z"/><path class="uuid-c79d3dde-1dba-4d20-8dd9-62418bd4949b" d="M538.74877,232.6895c2.348-2.015,4.7396-4.1261,7.173-6.3353-2.4332,2.2089-4.8251,4.3205-7.173,6.3353Z"/><path class="uuid-c79d3dde-1dba-4d20-8dd9-62418bd4949b" d="M573.77357,198.4321c-.3321,.364-.6641,.7275-.9951,1.0881,.3315-.361,.6619-.7193,.9945-1.0838l.0006-.0043Z"/><path class="uuid-c79d3dde-1dba-4d20-8dd9-62418bd4949b" d="M570.46937,202.0192c.4601-.4942,.9218-.9933,1.3842-1.4942-.4623,.5008-.9241,1-1.3842,1.4942Z"/><path class="uuid-c79d3dde-1dba-4d20-8dd9-62418bd4949b" d="M559.56887,213.3277c-.4904,.4908-.9798,.979-1.4674,1.4621,.4876-.4831,.977-.9712,1.4674-1.4621Z"/><path class="uuid-c79d3dde-1dba-4d20-8dd9-62418bd4949b" d="M568.17507,204.4668c.4785-.5066,.9597-1.0209,1.4407-1.5347-.481,.5138-.9622,1.0282-1.4407,1.5347Z"/><path class="uuid-c79d3dde-1dba-4d20-8dd9-62418bd4949b" d="M564.36237,208.4528c1.1033-1.1399,2.2136-2.2994,3.3306-3.4784-1.117,1.1789-2.2273,2.3385-3.3306,3.4784Z"/><path class="uuid-7c28f2e4-7aaa-4e3f-869e-3486bd2ade3e" d="M641.78597,224.1391c.2824-6.1954,.6347-12.4996,1.0667-18.8861-.4319,6.3866-.7844,12.6907-1.0667,18.8861Z"/><path class="uuid-7c28f2e4-7aaa-4e3f-869e-3486bd2ade3e" d="M642.87347,204.9433c.1417-2.0834,.2919-4.1756,.451-6.2754-.1591,2.0999-.3093,4.1919-.451,6.2754Z"/><path class="uuid-7c28f2e4-7aaa-4e3f-869e-3486bd2ade3e" d="M645.10397,178.5934c.2218-2.1745,.4542-4.3541,.6969-6.5375-.2427,2.1835-.4752,4.3629-.6969,6.5375Z"/><path class="uuid-7c28f2e4-7aaa-4e3f-869e-3486bd2ade3e" d="M643.34737,198.3674c.4939-6.4884,1.0718-13.0497,1.7448-19.6571-.6729,6.6075-1.2511,13.1686-1.7448,19.6571Z"/><path class="uuid-7c28f2e4-7aaa-4e3f-869e-3486bd2ade3e" d="M640.99547,248.7502c.0738-3.8933,.1724-7.8507,.2991-11.8655-.1267,4.0149-.2253,7.9722-.2991,11.8655Z"/><path class="uuid-7c28f2e4-7aaa-4e3f-869e-3486bd2ade3e" d="M640.84357,260.5215c.0125-1.8129,.0304-3.6438,.0534-5.4898-.023,1.8461-.0409,3.6769-.0534,5.4898Z"/><path class="uuid-7c28f2e4-7aaa-4e3f-869e-3486bd2ade3e" d="M641.52217,230.405c.0761-1.9708,.1588-3.9534,.2491-5.9479-.0902,1.9945-.173,3.977-.2491,5.9479Z"/><path class="uuid-7c28f2e4-7aaa-4e3f-869e-3486bd2ade3e" d="M640.90247,254.6c.0239-1.8511,.0528-3.7172,.0881-5.5995-.0353,1.8825-.0642,3.7483-.0881,5.5995Z"/><path class="uuid-7c28f2e4-7aaa-4e3f-869e-3486bd2ade3e" d="M645.82857,171.8075c.9906-8.8846,2.157-17.8335,3.5239-26.7807-1.3666,8.9474-2.5335,17.8959-3.5239,26.7807Z"/><path class="uuid-7c28f2e4-7aaa-4e3f-869e-3486bd2ade3e" d="M641.29857,236.7516c.0621-1.9586,.1315-3.9319,.2072-5.9165-.0757,1.9847-.1451,3.9578-.2072,5.9165Z"/><path class="uuid-7c28f2e4-7aaa-4e3f-869e-3486bd2ade3e" d="M649.37747,144.8633c1.3738-8.9763,2.9491-17.9501,4.7509-26.8545-1.8017,8.9046-3.3773,17.8779-4.7509,26.8545Z"/><path class="uuid-7c28f2e4-7aaa-4e3f-869e-3486bd2ade3e" d="M654.14577,117.9226c.4489-2.2168,.9118-4.4293,1.3892-6.6364-.4774,2.2072-.9403,4.4195-1.3892,6.6364Z"/><path class="uuid-7c28f2e4-7aaa-4e3f-869e-3486bd2ade3e" d="M656.64947,106.2997l-.0039-.0237c-.3749,1.6504-.7414,3.3042-1.0999,4.961,.357-1.6501,.7305-3.2937,1.1038-4.9373Z"/><path class="uuid-a9cb178e-5c8e-4f16-aec0-f67cd611a1f9" d="M526.29657,242.8294v.0001c.0022-.0016,.0043-.0033,.0064-.005,2.8162-2.1684,5.7084-4.4816,8.6731-6.9474,.0466-.0388,.0931-.0772,.1397-.1161,.5486-.4568,1.1-.9194,1.6536-1.3868,.0783-.0661,.1567-.1325,.2351-.1988,.5571-.4714,1.1163-.947,1.6785-1.4292,.0219-.0187,.0439-.0379,.0658-.0567,2.3479-2.0148,4.7398-4.1264,7.173-6.3353,.1286-.1168,.2569-.2328,.3858-.3501,.5181-.4718,1.0385-.9488,1.5604-1.4296,.1579-.1455,.316-.2916,.4743-.4379,.5213-.482,1.044-.9672,1.5691-1.4583,.133-.1244,.2668-.2507,.4001-.3757,1.814-1.7014,3.6494-3.4556,5.5071-5.2677,.0342-.0334,.0682-.0661,.1024-.0995,.5173-.5049,1.0375-1.0176,1.5581-1.5312,.2074-.2047,.4144-.4083,.6224-.6144,.4876-.4831,.977-.9713,1.4674-1.4621,.2365-.2367,.4734-.4744,.7106-.7129,.4853-.488,.9715-.9787,1.4596-1.4743,.235-.2386,.471-.4801,.7066-.7205,.5004-.5105,1.0009-1.0213,1.5042-1.5398,.137-.1412,.2752-.2856,.4125-.4274,1.1033-1.1399,2.2136-2.2995,3.3306-3.4784,.1609-.1699,.3209-.3369,.4821-.5076,.4785-.5065,.9597-1.0209,1.4407-1.5347,.2843-.3038,.5683-.6066,.8536-.9129,.4601-.4942,.9219-.9934,1.3842-1.4942,.3079-.3335,.6161-.6683,.9249-1.0048,.331-.3606,.663-.7241,.9951-1.0881l11.4857-81.0563,8.2388,58.1423c.2731-.335,.5451-.6664,.8188-1.0037,.4002-.4934,.8027-.9946,1.2043-1.4928,.4343-.5389,.8686-1.0773,1.3045-1.6218,.4134-.5165,.8283-1.0381,1.2431-1.5598,.4284-.5386,.8574-1.0793,1.2872-1.6235,.4159-.5264,.8322-1.0549,1.2494-1.5865,.4422-.5634,.8855-1.1315,1.3292-1.7007,.4042-.5187,.8082-1.0362,1.2137-1.5598,.4974-.6421,.9967-1.2919,1.4959-1.9414,.3546-.4614,.708-.9181,1.0636-1.3832,.8122-1.0625,1.6271-2.1354,2.4443-3.2175,.3624-.4799,.7267-.9677,1.09-1.4514,.5039-.671,1.0078-1.3422,1.5136-2.0207,.3955-.5305,.7923-1.0664,1.1889-1.6016,.4791-.6466,.9588-1.2954,1.4395-1.9487,.4042-.5493,.809-1.1009,1.2144-1.6551,.4854-.6637,.972-1.3323,1.4591-2.0029,.3954-.5444,.7906-1.0879,1.1872-1.637,.5403-.7481,1.0825-1.5043,1.6248-2.2611,.3423-.4776,.6835-.9509,1.0266-1.4319,.8503-1.1924,1.703-2.3954,2.5581-3.609,.3353-.4759,.6723-.9597,1.0083-1.4389,.56-.7987,1.1203-1.5982,1.6823-2.406,.3884-.5582,.7779-1.122,1.1672-1.6846,.5173-.7475,1.035-1.4974,1.5539-2.2527,.3996-.5816,.7998-1.1658,1.2003-1.752,.5199-.7608,1.0408-1.5267,1.5622-2.2954,.3918-.5775,.7835-1.1541,1.1762-1.7361,.5696-.8441,1.1409-1.6964,1.7124-2.5499,.3438-.5134,.6868-1.0225,1.0313-1.5394,.8848-1.3274,1.7717-2.6654,2.6609-4.0155,.2971-.451,.5956-.9096,.8932-1.3631,.6238-.9509,1.2481-1.9036,1.8741-2.8657,.3855-.5924,.7721-1.1909,1.1584-1.7876,.5453-.8422,1.091-1.6868,1.6379-2.5376,.4038-.6282,.8083-1.2595,1.2129-1.8924,.5434-.8496,1.0876-1.7044,1.6326-2.5626,.3952-.6224,.7904-1.2444,1.1864-1.8713,.5953-.9423,1.192-1.8929,1.7892-2.8453,.3439-.5487,.6871-1.0931,1.0318-1.6451,.9164-1.4683,1.8348-2.9471,2.7556-4.4395,.2615-.4237,.5242-.8549,.786-1.2806,.216-.3512,.4322-.704,.6484-1.0565l-11.2362-67.0476c-54.5903,37.3552-121.6154,106.7442-116.283,220.4868Z"/><path class="uuid-26cfdebb-3154-4edc-acf8-cb9afa94c550" d="M655.53497,111.2862c-.4774,2.2071-.9403,4.4196-1.3892,6.6364-.0059,.0288-.0116,.0575-.0174,.0862-1.8018,8.9044-3.3771,17.8782-4.7509,26.8545-.0083,.0545-.0166,.109-.025,.1635-1.3669,8.9472-2.5333,17.8961-3.5239,26.7807-.0093,.0828-.0185,.1656-.0277,.2484-.2427,2.1834-.4751,4.363-.6969,6.5375-.004,.039-.0079,.0779-.0118,.1169-.673,6.6074-1.2509,13.1687-1.7448,19.6571-.0076,.1001-.0154,.2004-.0229,.3005-.1591,2.0998-.3093,4.192-.451,6.2754-.007,.1034-.0138,.2064-.0208,.3097-.432,6.3865-.7843,12.6907-1.0667,18.8861-.0049,.1059-.01,.2121-.0147,.318-.0903,1.9945-.173,3.9771-.2491,5.9479-.0055,.1435-.0109,.2867-.0164,.4301-.0757,1.9846-.1451,3.9579-.2072,5.9165-.0014,.0445-.0026,.0886-.004,.1331-.1267,4.0148-.2253,7.9722-.2991,11.8655-.0016,.0832-.0034,.167-.0049,.2503-.0353,1.8823-.0642,3.7484-.0881,5.5995-.0018,.1441-.0037,.2879-.0055,.4317-.023,1.846-.0409,3.6769-.0534,5.4898-.0005,.0854-.001,.17-.0015,.2552-.0249,3.7729-.028,7.4733-.0116,11.0898,12.9018-10.7216,25.6481-23.2341,37.2452-37.7143l-21.4262-127.8525c-.3733,1.6436-.7468,3.2872-1.1038,4.9373-.0036,.0165-.0072,.0328-.0107,.0492Z"/></g><path class="uuid-c79d3dde-1dba-4d20-8dd9-62418bd4949b" d="M532.50807,0s33.7821,71.0619,104.7012,78.4844c0,0-29.8749-56.8835-69.2197-78.4844h-35.4815Z"/><path class="uuid-c79d3dde-1dba-4d20-8dd9-62418bd4949b" d="M524.83437,45.138s28.8108,75.1306-22.7079,133.5723l22.7079-133.5723Z"/><path class="uuid-6c058cde-0f2d-4666-b6c1-513f669186d5" d="M492.94107,511.1293s7.8079-63.0953,105.9615-80.7894c0,0-1.9606,40.7572-105.9615,80.7894Z"/><path class="uuid-6c058cde-0f2d-4666-b6c1-513f669186d5" d="M482.33967,421.2309c-16.0926-40.8619,5.9117-94.6122,39.4482-119.8092,15.9817-12.0076,29.7356-28.107,39.9674-45.199-1.9949,3.3325,11.4794,72.4873-38.5806,120.3246-9.276,8.8642-16.8751,19.3292-25.491,28.8394-1.0678,1.1786-15.5704,15.2746-15.344,15.8442Z"/><g><path class="uuid-c79d3dde-1dba-4d20-8dd9-62418bd4949b" d="M495.33067,511.0256s56.8208-97.9402-41.2991-158.2381c0,0-61.2569,96.4263,41.2991,158.2381Z"/><path class="uuid-c79d3dde-1dba-4d20-8dd9-62418bd4949b" d="M495.42007,511.5057s-24.0442-110.647-137.1677-89.0501c0,0,19.7469,112.5189,137.1677,89.0501Z"/><path class="uuid-c79d3dde-1dba-4d20-8dd9-62418bd4949b" d="M495.33067,511.0252c.2605,.9411,21.244-11.7085,22.4404-12.6643,20.9484-16.7365,23.7417-49.6988,20.0426-74.3846-4.4509-29.7032-16.6726-60.1514-42.2818-77.6917,0,0-34.9815,31.4419-.2012,164.7406Z"/><path class="uuid-c79d3dde-1dba-4d20-8dd9-62418bd4949b" d="M495.33067,511.0252s-45.2175,18.8977-76.7788-35.2528c0,0-25.3866-52.7265-5.3016-102.5736,0,0,81.4981,75.9733,82.0804,137.8264Z"/><g><rect class="uuid-a9cb178e-5c8e-4f16-aec0-f67cd611a1f9" x="495.33043" y="511.02519" width=".00032" height=".00036" transform="translate(-210.68806 600.67462) rotate(-53.1301)"/><path class="uuid-a9cb178e-5c8e-4f16-aec0-f67cd611a1f9" d="M495.42007,511.5057s-.0355-.1632-.1092-.4723c-.1615,.066-1.4185,.5705-3.5447,1.1598,1.2087-.2163,2.4239-.4417,3.6539-.6875Z"/><path class="uuid-a9cb178e-5c8e-4f16-aec0-f67cd611a1f9" d="M495.33077,511.0254c.0389,.1382,.5295-.0199,1.3373-.39-.3649-.0102-.7307-.0232-1.0969-.0374-.1556,.2812-.2399,.4265-.2404,.4274Z"/><path class="uuid-a9cb178e-5c8e-4f16-aec0-f67cd611a1f9" d="M495.37287,510.5911s2.2783-5.2691,6.4792-13.6638c9.7063-24.7261,22.6665-77.4373-18.9126-121.1313-3.9543,19.4103-5.2335,50.2355,3.8324,97.6365,5.1731,12.6191,8.4438,25.381,8.5588,37.5927l.0001,.0001c.0005-.0008,.0848-.1461,.2404-.4273-.0662-.0026-.1321-.0042-.1983-.0069Z"/><path class="uuid-a9cb178e-5c8e-4f16-aec0-f67cd611a1f9" d="M491.76617,512.1932c-5.2894,.9465-10.3764,1.6145-15.2662,2.0244,6.6076-.0003,11.9765-1.1126,15.2662-2.0244Z"/><path class="uuid-a9cb178e-5c8e-4f16-aec0-f67cd611a1f9" d="M495.31087,511.0334c.0115-.0048,.0192-.0079,.0192-.0079-.0081-.0052-.0164-.0103-.0248-.0154,.002,.0084,.0036,.0151,.0056,.0233Z"/><path class="uuid-a9cb178e-5c8e-4f16-aec0-f67cd611a1f9" d="M486.77187,473.4325c-11.5742-28.2342-32.6783-55.7518-49.3176-74.7894-1.6745,10.1372-2.2307,21.3627-.5802,33.0421,44.0172,23.5179,57.1109,73.803,58.4312,79.3249,.0084,.0051,.0167,.0102,.025,.0152l.0004-.0001c-3.5382-13.5604-6.3542-26.0664-8.5588-37.5927Z"/><path class="uuid-a9cb178e-5c8e-4f16-aec0-f67cd611a1f9" d="M436.87407,431.6852c-9.043-4.8316-19.3926-8.5312-31.2123-10.4829,1.4228,30.7528,12.8901,54.5701,12.8901,54.5701,18.5886,31.8929,41.9134,38.4458,57.9481,38.4452,4.8898-.4099,9.9768-1.0779,15.2662-2.0244,2.1262-.5893,3.3832-1.0938,3.5447-1.1598-.002-.0082-.0036-.0149-.0056-.0233-39.4818-23.8046-54.6744-52.7404-58.4312-79.3249Z"/><path class="uuid-a9cb178e-5c8e-4f16-aec0-f67cd611a1f9" d="M486.77187,473.4325c2.2046,11.5263,5.0206,24.0323,8.5588,37.5927-.115-12.2117-3.3857-24.9736-8.5588-37.5927Z"/><path class="uuid-4e013940-853b-4647-a342-8a89ed3fd961" d="M539.04517,436.4342c-16.9213,22.1275-29.9309,45.981-37.1931,60.4931-2.8929,7.3693-5.4964,12.2528-6.2809,13.6707,.3662,.0142,.732,.0272,1.0969,.0374,4.6787-2.1441,20.0828-11.4595,21.103-12.2746,17.5777-14.0434,22.3714-39.5104,21.2741-61.9266Z"/><path class="uuid-a9cb178e-5c8e-4f16-aec0-f67cd611a1f9" d="M495.57117,510.598c.7845-1.4179,3.388-6.3014,6.2809-13.6707-4.2009,8.3947-6.4792,13.6638-6.4792,13.6638,.0662,.0027,.1321,.0043,.1983,.0069Z"/></g><path class="uuid-4e013940-853b-4647-a342-8a89ed3fd961" d="M495.30527,511.0101c-1.3203-5.5219-14.414-55.807-58.4312-79.3249,3.7568,26.5845,18.9494,55.5203,58.4312,79.3249Z"/></g></g><g><path class="uuid-13735eed-681e-42c1-82f6-9bea9521f1d9" d="M1459.79237,392.41155c0,33.8105-11.86,62.7135-35.5807,86.7025-23.7204,23.9955-52.349,35.9899-85.8847,35.9899h-121.4657V2.24935h121.4657c33.8044,0,62.5027,12.0008,86.0891,35.9898,23.5802,23.9952,35.3763,52.7578,35.3763,86.2938V392.41155Zm-165.6348,46.214h46.6232c12.2691,0,22.6279-4.4284,31.0819-13.2915,8.4482-8.857,12.6783-19.2859,12.6783-31.2867V125.75965c0-12.2691-4.294-22.7619-12.8827-31.4911-8.5883-8.7226-18.8832-13.087-30.8775-13.087h-46.6232V438.62555Z"/><path class="uuid-7dc38163-7e40-4944-8ccf-fd82120c2b23" d="M1230.70157,475.73605s-32.3714-53.9068,2.0224-105.9652c0,0,25.8074,43.1189-2.0224,105.9652Z"/><path class="uuid-388c484d-0ae8-403a-be68-2235b8c2066e" d="M1233.36947,475.73605s11.7388-68.1577,83.0449-71.1244c0,0-19.8418,59.3163-83.0449,71.1244Z"/><path class="uuid-d6b5f8bb-10ef-43c4-8f7d-e844ea9398ab" d="M1298.76297,366.73685c-2.1667,.621-4.6786,1.5233-6.7344,.1471-2.015-1.3489-2.4783-3.7122-3.9249-5.4931-5.2839-6.5051-11.6644,3.4199-17.5953,1.9243-1.8219-.4595-3.0791-2.2582-4.8509-2.923-2.7232-1.0216-5.5725-.6935-8.1885,.4929-8.6177,3.9087-14.8319,11.2331-19.2688,20.3894l-.0701,1.2269c5.1431,15.6017,10.333,44.5822-2.7719,81.5497l1.8901-1.5988c6.8608-18.3134,24.6401-49.8269,66.9351-56.6205l1.5828-1.3389c3.7106-8.8399,4.6714-14.5256,4.6714-14.5256,5.6926-28.2085-11.6746-23.2304-11.6746-23.2304Z"/><path class="uuid-20c6c303-7d0d-4863-abdf-1bd32961bf4d" d="M1216.86127,469.54705c18.5522,16.7106,38.5785,33.193,60.5469,45.5569h60.9188c11.792,0,22.9746-1.4896,33.5532-4.4559-5.1245-13.9204-35.5822-29.6295-48.9755-34.2672-13.2924-4.6028-27.1119-7.6021-41.0541-9.3893-12.0979-1.5507-47.5751-3.297-64.9893-2.9439v5.4994Z"/><g><path class="uuid-388c484d-0ae8-403a-be68-2235b8c2066e" d="M1268.40267,267.09875c-2.1609,12.2566-13.8505,50.2821-18.5154,61.9699-4.7585,11.9221-10.5609,23.4595-17.6612,34.1652-11.1312,16.7835-55.3821,63.994-53.5108,11.436,.5443-15.2893,5.6544-30.0243,14.2102-42.02,19.3316-27.104,47.9213-47.6159,75.4772-65.5511Z"/><g><path class="uuid-d6b5f8bb-10ef-43c4-8f7d-e844ea9398ab" d="M1161.36997,315.44085s2.8262-43.3891,94.4235-37.9291c0,0-46.22,51.6049-94.4235,37.9291Z"/><g><path class="uuid-91936ca5-8031-492e-80a8-a2433e8aca85" d="M1268.00077,278.93865l1.1965,2.0017s-.2571-.6432-.6732-1.8318l-.5233-.1699Z"/><path class="uuid-20c6c303-7d0d-4863-abdf-1bd32961bf4d" d="M1266.95607,152.77425c-2.0303-2.9848-5.6939-8.0616-9.976-6.6209-2.7811,.9358-3.9166,4.7094-7.3784,1.5971-2.6502-2.3825-4.8541-4.4136-8.28-2.499-3.4625,1.9349-4.7575,6.9024-9.4343,6.4262-4.9343-.5026-8.6845-4.4091-13.5082-1.7905-4.6701,2.535-5.9372,7.2172-6.8441,12.0772-1.4747,7.9034-.9234,16.0159,.9384,24.0664,13.3433,14.9259,32.9703,41.9149,54.5093,88.2649-4.5275-15.3673-12.4491-54.0533,12.3727-80.098l.0002-.0016c-4.7402-21.0996-12.3996-41.4218-12.3996-41.4218Z"/></g><path class="uuid-7dc38163-7e40-4944-8ccf-fd82120c2b23" d="M1171.50027,252.48495s29.0099-32.3886,97.6969,28.4553c0,0-68.2191,12.0621-97.6969-28.4553Z"/><path class="uuid-7dc38163-7e40-4944-8ccf-fd82120c2b23" d="M1269.19717,280.94025s-24.3337-60.8894,17.0941-92.9929c0,0,26.7766,41.7433-17.0941,92.9929Z"/><path class="uuid-d6b5f8bb-10ef-43c4-8f7d-e844ea9398ab" d="M1175.94027,249.05195c10.2621-6.2523,38.7864-15.0643,90.313,29.3193l3.0605,.9935c-40.3185-88.8442-74.5736-109.7547-74.5736-109.7547-14.1574-9.9187-17.7039,3.7596-17.7039,3.7596-.7227,9.7684-7.6903,5.4509-7.6903,5.4509-4.2423-1.7038-8.8154-2.1243-10.7277,2.9581-1.4691,3.904,.4587,8.3569-.7189,12.341-1.4297,4.8383-7.6722,5.3009-9.3028,9.864-1.9186,5.3687,.1623,11.2408,2.8159,15.9666,6.6741,11.8848,15.0614,21.4942,24.5276,29.1017h.0002Z"/><path class="uuid-388c484d-0ae8-403a-be68-2235b8c2066e" d="M1212.47347,186.03075c-1.8618-8.0505-2.4131-16.163-.9384-24.0664,.9069-4.86,2.174-9.5422,6.8441-12.0772,4.8237-2.6186,8.5739,1.2879,13.5082,1.7905,.6732,.0684,1.27,.0139,1.8195-.1177l-.0134-.0988c-1.4397-7.4814-8.0588-25.9929-19.6415-22.6052-5.0067,1.4644-5.9036,8.6572-11.365,9.0695-5.1765,.3909-9.097-4.2988-14.1651-4.8032-5.6377-.5611-9.0593,1.1609-11.5025,6.389-.7669,1.6411-.7068,3.6177-1.5361,5.2772-1.5722,3.1462-4.1108,4.5112-7.6179,4.6427-7.9971,.2995-11.6123,3.1563-12.6966,11.2029-.4942,3.67,.091,7.4242,1.1296,10.949,1.2558,4.2615,.7483,4.7125,3.2335,8.397l.0215,.0135c2.2316-3.1485,6.1331-2.6427,9.7926-1.173,0,0,6.9676,4.3175,7.6903-5.4509,0,0,3.5465-13.6783,17.7039-3.7596,0,0,6.9136,4.2262,18.1808,16.9265-.1486-.1673-.3005-.3414-.4475-.5058Z"/></g></g><g><path class="uuid-7c28f2e4-7aaa-4e3f-869e-3486bd2ade3e" d="M1384.54097,125.75965c0-1.0481-.043-2.0784-.1057-3.1007-.671-10.9435-4.922-20.407-12.777-28.3904-2.8352-2.8795-5.8604-5.2737-9.0674-7.2032-6.5073-3.915-13.7754-5.8838-21.8101-5.8838h-46.6232V438.62545h46.6232c12.2691,0,22.6279-4.4283,31.0819-13.2914,8.4482-8.857,12.6783-19.2859,12.6783-31.2867V125.75965Z"/><path class="uuid-7c28f2e4-7aaa-4e3f-869e-3486bd2ade3e" d="M1298.05297,5.25655c.0113-.0001,.0223-.0003,.0339-.0004-.012,.0001-.0222,.0002-.0339,.0004Z"/><path class="uuid-7c28f2e4-7aaa-4e3f-869e-3486bd2ade3e" d="M1333.54477,10.91085c.0542,.014,.1087,.0282,.163,.0423-.0543-.0141-.1088-.0283-.163-.0423Z"/><path class="uuid-7c28f2e4-7aaa-4e3f-869e-3486bd2ade3e" d="M1331.01647,10.27085c.0044,.0011,.009,.0023,.0134,.0034l.0002,.0001c-.0044-.0012-.0091-.0024-.0136-.0035Z"/><path class="uuid-7c28f2e4-7aaa-4e3f-869e-3486bd2ade3e" d="M1297.81127,5.26085c.0132-.0004,.0254-.0006,.0396-.001-.015,.0004-.0256,.0007-.0396,.001Z"/><path class="uuid-7c28f2e4-7aaa-4e3f-869e-3486bd2ade3e" d="M1272.47527,36.78295c.0026-.0009,.005-.0019,.0076-.0027-.0026,.0008-.005,.0018-.0076,.0027Z"/><path class="uuid-7c28f2e4-7aaa-4e3f-869e-3486bd2ade3e" d="M1336.19467,11.61025c.0787,.0211,.1574,.0424,.2363,.0637-.079-.0214-.1576-.0426-.2363-.0637Z"/><path class="uuid-7c28f2e4-7aaa-4e3f-869e-3486bd2ade3e" d="M1297.63597,5.26565c.0145-.0005,.0276-.001,.046-.0015-.0198,.0006-.0305,.001-.046,.0015Z"/><path class="uuid-7c28f2e4-7aaa-4e3f-869e-3486bd2ade3e" d="M1297.54317,5.26925s.0152-.0007,.0337-.0015c-.0224,.0009-.0337,.0015-.0337,.0015Z"/><path class="uuid-7c28f2e4-7aaa-4e3f-869e-3486bd2ade3e" d="M1274.38477,36.21555c.0437-.0113,.0875-.0219,.1312-.0329-.0437,.011-.0875,.0216-.1312,.0329Z"/><path class="uuid-7c28f2e4-7aaa-4e3f-869e-3486bd2ade3e" d="M1273.38437,36.49305c.0396-.0117,.0791-.0235,.1188-.0352-.0397,.0117-.0792,.0235-.1188,.0352Z"/><path class="uuid-7c28f2e4-7aaa-4e3f-869e-3486bd2ade3e" d="M1430.93317,50.86305c.0473,.0251,.095,.0508,.1423,.0759-.0473-.0251-.095-.0507-.1423-.0759Z"/><path class="uuid-7c28f2e4-7aaa-4e3f-869e-3486bd2ade3e" d="M1436.04267,53.60535c.1173,.0635,.2354,.1278,.3528,.1916-.1175-.0638-.2355-.128-.3528-.1916Z"/><path class="uuid-7c28f2e4-7aaa-4e3f-869e-3486bd2ade3e" d="M1392.93177,32.26385c.0341,.0152,.0677,.0299,.1018,.0451-.0341-.0152-.0677-.0299-.1018-.0451Z"/><path class="uuid-7c28f2e4-7aaa-4e3f-869e-3486bd2ade3e" d="M1369.40767,83.57575c.0011-.0005,.0023-.001,.0035-.0015-.0012,.0005-.0024,.001-.0035,.0015Z"/><path class="uuid-7c28f2e4-7aaa-4e3f-869e-3486bd2ade3e" d="M1388.51187,30.32255c.1049,.0455,.2089,.0902,.3139,.1359-.105-.0457-.209-.0904-.3139-.1359Z"/><path class="uuid-7c28f2e4-7aaa-4e3f-869e-3486bd2ade3e" d="M1338.95667,12.36925c.0899,.0253,.1792,.0501,.2693,.0754-.0901-.0253-.1794-.0501-.2693-.0754Z"/><path class="uuid-7c28f2e4-7aaa-4e3f-869e-3486bd2ade3e" d="M1373.13867,81.97385c.0013-.0005,.0027-.0011,.004-.0016-.0013,.0005-.0027,.0011-.004,.0016Z"/><path class="uuid-7c28f2e4-7aaa-4e3f-869e-3486bd2ade3e" d="M1377.13597,80.45915c.0013-.0004,.0026-.0009,.0039-.0014-.0013,.0005-.0026,.0009-.0039,.0014Z"/><path class="uuid-7c28f2e4-7aaa-4e3f-869e-3486bd2ade3e" d="M1384.54097,140.77365c5.179-7.5259,12.0755-15.5805,21.1786-24.0525-6.824,2.5148-13.956,4.5744-21.2843,5.9378,.0627,1.0223,.1057,2.0526,.1057,3.1007v15.014Z"/><path class="uuid-7c28f2e4-7aaa-4e3f-869e-3486bd2ade3e" d="M1384.27637,28.50875c.1428,.0603,.2854,.1205,.4286,.1811-.1433-.0606-.2857-.1207-.4286-.1811Z"/><path class="uuid-7c28f2e4-7aaa-4e3f-869e-3486bd2ade3e" d="M1344.93907,14.11315c.0309,.0093,.0611,.0182,.092,.0276-.0309-.0093-.0611-.0183-.092-.0276Z"/><path class="uuid-7c28f2e4-7aaa-4e3f-869e-3486bd2ade3e" d="M1341.86587,13.20065c.0738,.0216,.1467,.0425,.2207,.0641-.0741-.0216-.1469-.0425-.2207-.0641Z"/><path class="uuid-7c28f2e4-7aaa-4e3f-869e-3486bd2ade3e" d="M1372.42487,23.68695c.112,.0437,.2255,.0886,.3378,.1325-.1124-.0439-.2257-.0888-.3378-.1325Z"/><path class="uuid-7c28f2e4-7aaa-4e3f-869e-3486bd2ade3e" d="M1368.70767,22.25525c.053,.0201,.1069,.041,.16,.0611-.0531-.0201-.1069-.041-.16-.0611Z"/><path class="uuid-7c28f2e4-7aaa-4e3f-869e-3486bd2ade3e" d="M1376.25057,25.20145c.1447,.058,.2905,.1169,.4357,.1753-.1452-.0584-.291-.1172-.4357-.1753Z"/><path class="uuid-7c28f2e4-7aaa-4e3f-869e-3486bd2ade3e" d="M1380.19467,26.80505c.1566,.0646,.3136,.1294,.4706,.1942-.1571-.0648-.314-.1296-.4706-.1942Z"/><path class="uuid-388c484d-0ae8-403a-be68-2235b8c2066e" d="M1424.76207,158.82435c-2.4651,13.2025-4.0062,26.5057-4.2848,39.8346-.4459,21.3386,5.4674,43.1422,17.2969,61.8822,8.4352,13.363,15.7398,19.9638,22.0182,21.7803V124.53295c0-12.4392-1.6269-24.2201-4.8721-35.3461-1.0775,.8104-2.1994,1.6396-3.3655,2.4839-3.0483,14.472-10.5997,42.5682-26.7927,67.1536Z"/><path class="uuid-20c6c303-7d0d-4863-abdf-1bd32961bf4d" d="M1405.71957,116.72115c-9.1031,8.472-15.9996,16.5266-21.1786,24.0525v55.1996c17.2485-8.4782,30.3443-22.1532,40.2211-37.1489,16.193-24.5854,23.7444-52.6816,26.7927-67.1536-11.6654,8.4465-27.6554,18.3507-45.8352,25.0504Z"/><path class="uuid-20c6c303-7d0d-4863-abdf-1bd32961bf4d" d="M1331.01647,10.27085c.0045,.0011,.0092,.0023,.0136,.0035,.8228,.2037,1.6613,.4161,2.5147,.6365,.0542,.014,.1087,.0282,.163,.0423,.815,.2111,1.644,.4302,2.4869,.6571,.0787,.0211,.1573,.0423,.2363,.0637,.8285,.2238,1.6704,.4557,2.5257,.6953,.0899,.0253,.1792,.0501,.2693,.0754,.8662,.2437,1.7464,.4957,2.6399,.756,.0738,.0216,.1466,.0425,.2207,.0641,.936,.2734,1.8866,.5561,2.8525,.8484,.0309,.0093,.0611,.0183,.092,.0276,7.0859,2.1469,14.9757,4.8114,23.6766,8.1145,.0531,.0201,.1069,.041,.16,.0611,1.171,.4451,2.3569,.902,3.5572,1.3706,.1121,.0437,.2254,.0886,.3378,.1325,1.1494,.4497,2.3117,.9102,3.4879,1.382,.1447,.0581,.2905,.1169,.4357,.1753,1.1566,.4653,2.3259,.9414,3.5084,1.4283,.1566,.0646,.3135,.1294,.4706,.1942,1.1906,.4919,2.3944,.9951,3.6111,1.5095,.1429,.0604,.2853,.1205,.4286,.1811,1.2551,.5319,2.5242,1.0763,3.8069,1.6327,.1049,.0455,.2089,.0902,.3139,.1359,1.3535,.5881,2.7218,1.1897,4.106,1.8054,.0341,.0152,.0677,.0299,.1018,.0451,11.5598,5.1459,24.1897,11.2703,37.8996,18.5541,.0473,.0252,.095,.0508,.1423,.0759,1.6402,.8719,3.2961,1.761,4.9672,2.6664,.1173,.0636,.2353,.1278,.3528,.1916,.6392,.3467,1.2763,.6912,1.92,1.043-4.0588-5.766-8.6905-11.3002-13.8994-16.6008-23.5864-23.989-52.2847-35.9898-86.0891-35.9898h-15.1115c2.4222,2.796,5.0321,5.4685,7.801,8.0215Z"/><path class="uuid-d6b5f8bb-10ef-43c4-8f7d-e844ea9398ab" d="M1377.13987,80.45775c-.0013,.0005-.0026,.001-.0039,.0014-1.3764,.4886-2.707,.9936-3.9933,1.5131-.0013,.0005-.0027,.0011-.004,.0016-1.2863,.5196-2.5282,1.0537-3.7275,1.6004-.0012,.0005-.0024,.001-.0035,.0015-2.4465,1.1156-4.7132,2.2843-6.8168,3.4896,3.207,1.9295,6.2322,4.3237,9.0674,7.2032,7.855,7.9834,12.106,17.4469,12.777,28.3904,7.3283-1.3634,14.4603-3.423,21.2843-5.9378,18.1798-6.6997,34.1698-16.6039,45.8352-25.0504,1.1661-.8443,2.288-1.6735,3.3655-2.4839-1.6084-5.514-3.6177-10.8658-6.0229-16.0574-32.2097-2.0262-55.2678,1.4749-71.7575,7.3283Z"/><path class="uuid-7dc38163-7e40-4944-8ccf-fd82120c2b23" d="M1436.04267,53.60535c-1.6711-.9054-3.327-1.7945-4.9672-2.6664-.0473-.0251-.095-.0508-.1423-.0759-13.7099-7.2838-26.3398-13.4082-37.8996-18.5541-.0341-.0152-.0677-.0299-.1018-.0451-1.3842-.6157-2.7525-1.2173-4.106-1.8054-.105-.0457-.209-.0904-.3139-.1359-1.2827-.5564-2.5518-1.1008-3.8069-1.6327-.1432-.0606-.2858-.1208-.4286-.1811-1.2167-.5144-2.4205-1.0176-3.6111-1.5095-.157-.0648-.314-.1296-.4706-.1942-1.1825-.4869-2.3518-.963-3.5084-1.4283-.1452-.0584-.291-.1173-.4357-.1753-1.1762-.4718-2.3385-.9323-3.4879-1.382-.1123-.0439-.2258-.0888-.3378-.1325-1.2003-.4686-2.3862-.9255-3.5572-1.3706-.0531-.0201-.107-.041-.16-.0611-8.7009-3.3031-16.5907-5.9676-23.6766-8.1145-.0309-.0094-.0611-.0183-.092-.0276-.9659-.2923-1.9165-.575-2.8525-.8484-.074-.0216-.1469-.0425-.2207-.0641-.8935-.2603-1.7737-.5123-2.6399-.756-.0901-.0253-.1794-.0501-.2693-.0754-.8553-.2396-1.6972-.4715-2.5257-.6953-.0789-.0213-.1576-.0426-.2363-.0637-.8429-.2269-1.6719-.446-2.4869-.6571-.0543-.0141-.1088-.0283-.163-.0423-.8534-.2204-1.6919-.4328-2.5147-.6365l-.0002-.0001c.2957,.0734,.6039,.1535,.9034,.2288-19.4341-4.8892-30.5383-5.2547-33.5483-5.2488h-.0221c-.1014,.0002-.1934,.0009-.276,.0019-.0116,.0001-.0226,.0003-.0339,.0004-.0751,.0009-.1437,.0021-.2021,.0033-.0142,.0004-.0264,.0006-.0396,.001-.0485,.0011-.0943,.0022-.1293,.0033-.0184,.0005-.0315,.001-.046,.0015-.021,.0007-.0459,.0016-.0591,.0021-.0185,.0008-.0337,.0015-.0337,.0015-24.2053-.3018-17.5137,18.3205-17.5137,18.3205,6.8728,11.8708-4.5948,12.3749-4.5948,12.3749-.3083,.0679-.6143,.1413-.9187,.218-.0437,.011-.0875,.0216-.1312,.0329-.2965,.0762-.5905,.1571-.8816,.2423-.0397,.0117-.0792,.0235-.1188,.0352-.3041,.0908-.6054,.1858-.9015,.2872-.0026,.0008-.005,.0018-.0076,.0027-4.1094,1.4089-7.3647,3.878-7.4434,8.2667l-.0073,.0002c-.015,.8592,.0876,1.7895,.3343,2.8027,1.3813,5.6757,7.1255,9.3056,8.9074,14.844,2.1643,6.7253-4.6922,12.1869-2.9776,18.7524,2.0173,7.725,9.0587,12.8758,15.8579,16.2487,2.3339,1.1577,4.6715,2.2343,7.011,3.2456v-19.7617h46.6232c8.0347,0,15.3028,1.9688,21.8101,5.8838,2.1036-1.2053,4.3703-2.374,6.8168-3.4896,.0011-.0005,.0023-.001,.0035-.0015,1.1993-.5467,2.4412-1.0808,3.7275-1.6004,.0013-.0005,.0027-.0011,.004-.0016,1.2863-.5195,2.6169-1.0245,3.9933-1.5131,.0013-.0005,.0026-.0009,.0039-.0014,16.4897-5.8534,39.5478-9.3545,71.7575-7.3283-2.9354-6.3361-6.4599-12.4336-10.5819-18.2895-.6437-.3518-1.2808-.6963-1.92-1.043-.1174-.0638-.2355-.1281-.3528-.1916Z"/><path class="uuid-388c484d-0ae8-403a-be68-2235b8c2066e" d="M1244.68167,26.11375c2.3246,4.6357,5.9642,8.5169,9.9474,11.775,4.8158,3.9388,4.5846,4.8609,10.3673,7.1621l.0282-.001,.0073-.0002c.0787-4.3887,3.334-6.8578,7.4434-8.2667,.0026-.0009,.005-.0019,.0076-.0027,.2961-.1014,.5974-.1964,.9015-.2872,.0396-.0117,.0791-.0235,.1188-.0352,.2911-.0852,.5851-.1661,.8816-.2423,.0437-.0113,.0875-.0219,.1312-.0329,.3044-.0767,.6104-.1501,.9187-.218,0,0,11.4676-.5041,4.5948-12.3749,0,0-6.6916-18.6223,17.5137-18.3205,0,0,.0113-.0006,.0337-.0015,.0132-.0005,.0381-.0014,.0591-.0021,.0155-.0005,.0262-.0009,.046-.0015,.035-.0011,.0808-.0022,.1293-.0033,.014-.0003,.0246-.0006,.0396-.001,.0584-.0012,.127-.0024,.2021-.0033,.0117-.0002,.0219-.0003,.0339-.0004,.0826-.001,.1746-.0017,.276-.0019h.0221c3.01-.0059,14.1142,.3596,33.5483,5.2488-.2995-.0753-.6077-.1554-.9034-.2288-.0044-.0011-.009-.0023-.0134-.0034-2.7689-2.553-5.3788-5.2255-7.801-8.0215h-71.5859c-.3484,.3011-.7114,.5972-1.1008,.8848-9.0151,6.6574-10.9428,12.8154-5.8471,22.9796Z"/></g></g><g><rect class="uuid-761eaf23-e662-4d85-846d-f5181b948600" x="1618.57505" width="77.296" height="512.4454"/><g><path class="uuid-4f44666a-3212-4f00-b7ff-ba6141e39c50" d="M1590.97535,455.8471c-3.3948,9.4303,4.4451,15.8675,12.0305,19.6705,20.9578,10.5073,15.9647,30.6972,13.813,36.9279h15.425c.5955-6.8045,2.68-18.1459,6.8969-22.7483,4.05551-4.6523,11.1758-6.3182,14.4926-11.9294,4.9361-11.4423-7.9837-18.2959-4.8553-29.1098,3.1284-10.8138,15.8917-16.063,18.3916-28.6844,2.6099-13.4701-2.2309-22.7284-12.3843-30.9495-13.4385-9.51-14.7274-6.2249-9.13109-22.7599,3.75709-9.0063,6.99569-20.6689,.45759-30.1472-8.1258-10.5471-21.8478-4.5594-26.0281-18.9101-3.7718-10.8455,2.3114-17.8241-6.6629-28.4813-8.9745-10.6573-21.6277-6.2569-29.1247-14.9964-8.4558-8.0008-4.777-23.0586-18.5456-30.0224-13.7688-6.9638-29.7387,3.0477-30.8712,18.4356-.3938,16.3468,19.9766,18.9884,21.7207,32.1602,1.8539,12.323-13.78579,19.7882,1.0199,32.0648,7.71731,7.042,19.5216,2.5315,18.4992,17.0706-.5822,11.1441-13.5655,18.0907-13.40889,30.1936,.07589,5.8721,3.94379,10.5936,8.93179,13.2163,2.7134,1.4269,8.1738,1.3633,9.8321,4.2364,1.92711,3.3389-2.6964,6.7811-4.4843,8.7537-1.8162,2.0037-3.4417,4.1931-4.7435,6.5669-2.4502,4.4671-3.7117,9.554-3.1354,14.6503,.8468,7.4868,5.4132,13.396,12.0972,16.6892,3.041,1.4984,17.0669,2.8914,15.9613,6.4153-1.2785,4.0758-4.71419,7.5763-6.1941,11.6874Z"/><path class="uuid-3f01ce79-3553-484b-8283-3a77f978b735" d="M1611.00385,378.8277c-.8559-13.694,5.1353-22.2528,16.2616-29.0997,14.5499-7.7029,15.4057-4.2793,11.9823-21.3968-2.5676-9.4146-4.2794-21.3968,3.4234-29.9556,9.4146-9.4146,22.2527-1.7117,28.2439-15.4057,5.13521-10.2704,0-17.9734,10.2704-27.3879,10.2705-9.4147,22.2527-3.4235,30.8115-11.1264,9.4145-6.8469,7.7028-22.2527,22.2526-27.3879,14.5499-5.1353,29.09971,6.847,28.2439,22.2527-1.7118,16.2616-22.2528,16.2616-25.6763,29.0997-3.4234,11.9822,11.1265,21.3968-5.1351,31.6673-8.55879,5.9911-19.6851,0-20.541,14.5498-.8559,11.1264,11.1263,19.6851,9.4145,31.6673-.8305,5.8135-5.2734,9.9984-10.55729,11.9579-2.87441,1.066-8.28121,.3008-10.29531,2.9367-2.3405,3.0634,1.8019,7.0717,3.32131,9.2577,1.54339,2.2208,2.87379,4.6009,3.85959,7.1225,1.85541,4.7452,2.4521,9.952,1.2253,14.9318-1.8026,7.3157-7.0911,12.5887-14.1431,14.995-3.2085,1.0947-17.2971,.6724-16.65379,4.3092,.74369,4.2063,3.70069,8.1197,4.63959,12.3869,2.1539,9.7886-6.4488,15.1642-14.4604,17.9601-26.3834,9.2074-32.8974,16.1866-37.6584,9.4146-3.4235-5.1352-10.2704-7.7029-12.838-13.694-3.4236-11.9822,10.2704-17.1174,8.5586-28.2438-1.7116-11.1263-13.6939-17.9733-14.5498-30.8114Z"/><path class="uuid-e6e35d64-72c5-4aed-bb2a-568fd6eb708a" d="M1667.16955,419.9736c2.6099-13.4702-2.2308-22.7284-12.3841-30.9494-13.4386-9.5101-14.7274-6.225-9.1311-22.7601,3.7571-9.0062,6.9956-20.6688,.4575-30.147-1.8752-2.434-4.0487-3.9864-6.3339-5.1124,2.75431,14.0934,1.22631,11.4499-12.5125,18.7233-11.1263,6.8469-17.1175,15.4057-16.2616,29.0997,.8559,12.8381,12.8382,19.6851,14.5498,30.8114,1.7118,11.1264-11.9822,16.2616-8.5586,28.2438,2.5676,5.9911,9.4145,8.5587,12.838,13.6939,4.761,6.7721,17.8668,.8083,18.945-2.9188,3.1283-10.8139,15.8917-16.063,18.3915-28.6844Z"/></g><path class="uuid-e6e35d64-72c5-4aed-bb2a-568fd6eb708a" d="M1693.96605,407.5061c-3.2085,1.0948-17.297,.6725-16.6539,4.3092,.7437,4.2063,3.7008,8.1197,4.6397,12.3869,2.1538,9.7885-6.4488,15.1642-14.4604,17.9601-10.386,3.6245-15.3783,10.0985-17.61619,16.6169,2.56019,5.9628,6.99259,11.4905,3.75809,18.9885-3.3168,5.6113-10.43709,7.2772-14.4926,11.9294-4.2169,4.6025-6.3014,15.9438-6.8969,22.7483h63.6272v-105.6883c-.6209,.271-1.2527,.5263-1.905,.749Z"/><g><path class="uuid-7c28f2e4-7aaa-4e3f-869e-3486bd2ade3e" d="M1618.57505,49.6986v14.2911c.824-5.1861,2.5764-13.0814,0-14.2911Z"/><path class="uuid-e6e35d64-72c5-4aed-bb2a-568fd6eb708a" d="M1659.45945,85.7704c.479,.0317,.9789,.04,1.5059,.0248,3.3862-.0978,7.1375-3.9305,10.30891-.5061,2.53249,2.7346,.07079,8.1069,.50149,11.3326,.7917,5.9299,4.4543,11.5531,11.0812,13.8675,4.354,1.5207,8.6982,1.5192,13.0141,.9343V35.8959c-5.5001-1.8293-10.6015-4.6787-15.0042-7.5024-7.8385-4.3362-11.576-6.3635-14.5657-6.3141-.42689,.007-.8388,.0565-1.2452,.1476-3.2505,.7292-6.1496,4.1276-13.7019,9.8488-10.5333,6.9899-20.8555,9.994-32.779,7.2865l.0003,10.3365c5.7082,2.6838,10.8204,10.0706,15.0681,14.1934,6.1921,6.0107,10.6585,13.6896,18.0253,18.7458,2.7501,1.8876,4.8873,2.9401,7.7907,3.1324Z"/><path class="uuid-4f44666a-3212-4f00-b7ff-ba6141e39c50" d="M1651.35405,32.0758c7.5523-5.7212,10.4514-9.1196,13.7019-9.8488,.4064-.0911,.81831-.1406,1.2452-.1476,2.9897-.0494,6.7272,1.9779,14.5657,6.3141,4.4027,2.8237,9.5041,5.6731,15.0042,7.5024V0h-77.296V39.3623c11.9235,2.7075,22.2457-.2966,32.779-7.2865Z"/></g><path class="uuid-3f01ce79-3553-484b-8283-3a77f978b735" d="M1643.99405,79.8281s-14.6415,58.7149-25.419,87.1062V38.1733s26.6156,12.2573,25.419,41.6548Z"/></g><g><path class="uuid-1e27557e-1b8b-440d-9d13-a9258d9b5576" d="M1045.71832,395.4788c0,34.0854-11.9308,62.918-35.7855,86.4982-23.8608,23.5861-52.6941,35.3763-86.4985,35.3763-19.6308,0-35.5804-2.0449-47.8495-6.1349l11.0421-71.9793c8.7226,1.6358,16.2182,2.4537,22.4936,2.4537,3.8151,.2748,9.2661,.1405,16.3591-.4091,12.5378-.8179,23.1068-5.3166,31.6955-13.4958,8.5887-8.1796,12.8823-18.4041,12.8823-30.6732V0h75.6609V395.4788Z"/><g><path class="uuid-7dc38163-7e40-4944-8ccf-fd82120c2b23" d="M1012.05162,480.2627s61.0956-14.9956,73.8317-76.1055c0,0-48.8084,12.0556-73.8317,76.1055Z"/><path class="uuid-388c484d-0ae8-403a-be68-2235b8c2066e" d="M1010.17172,478.368s40.134-56.3648-8.0054-109.0971c0,0-28.145,55.8894,8.0054,109.0971Z"/><path class="uuid-28eacac6-7731-4216-a542-7f5892c6ac65" d="M1041.50332,355.1182c1.0857,1.9765,2.2149,4.3962,4.6409,4.8865,2.3779,.4805,4.3828-.8558,6.6669-1.0833,8.3433-.8312,5.7906,10.694,11.032,13.8522,1.6102,.9701,3.7736,.5955,5.4942,1.3854,2.6445,1.2142,4.4192,3.469,5.42,6.1628,3.2966,8.8746,2.4736,18.4491-.9027,28.0523l-.8219,.9143c-14.7046,7.3413-38.9436,24.0767-55.9636,59.4332l-.1964-2.4689c8.1717-17.7772,18.0243-52.6103-6.9543-87.4356l-.1644-2.0675c3.6634-8.8644,7.0244-13.5532,7.0244-13.5532,16.0224-23.9202,24.7249-8.0782,24.7249-8.0782Z"/></g><g><path class="uuid-71867f00-5d58-4da4-a5de-de4ab3c2cd4c" d="M887.86612,515.0319c12.2796,2.026,52.0299,3.6085,64.6033,3.0836,12.8255-.5354,25.6342-2.1834,38.0887-5.3315,19.5252-4.9353,78.7389-31.0255,28.5348-46.6901-14.6047-4.5569-30.2005-4.6226-44.3547-.5291-31.9811,9.2491-60.8135,29.4184-86.8721,49.4671Z"/><g><path class="uuid-f1e4b2cb-37d6-4511-b2c8-88ab6a5ab517" d="M978.02732,435.698s-39.6465-17.8535-77.7835,65.6058c0,0,67.2545-16.6187,77.7835-65.6058Z"/><g><path class="uuid-28eacac6-7731-4216-a542-7f5892c6ac65" d="M895.77882,512.7544l1.2066,1.9956s-.4474-.5287-1.3021-1.4537l.0955-.5419Z"/><path class="uuid-1e27557e-1b8b-440d-9d13-a9258d9b5576" d="M784.84059,452.6605c-1.6839-3.193-4.4495-8.8097-1.1687-11.9159,2.1307-2.0175,5.9961-1.2504,4.8709-5.7676-.8612-3.4581-1.62148-6.3571,1.6763-8.4849,3.3328-2.1506,8.3274-.9646,10.10022-5.3185,1.87038-4.5936,.179-9.7379,4.754-12.7701,4.42928-2.9357,9.15878-1.8588,13.87648-.3805,7.6719,2.4042,14.5783,6.6959,20.81532,12.116,6.9245,18.7851,21.556,48.7774,52.3904,89.5388-11.4489-11.206-41.9011-36.3461-76.54512-26.6385l-.0016-.0006c-16.4119-14.0822-30.7682-30.3782-30.7682-30.3782Z"/></g><path class="uuid-07f77542-148c-4bd9-b13b-a893a53c2b5f" d="M917.67382,415.1186s-42.2112,10.4313-20.6884,99.6313c0,0,42.6481-54.5938,20.6884-99.6313Z"/><path class="uuid-07f77542-148c-4bd9-b13b-a893a53c2b5f" d="M896.98542,514.7499s-42.3648-50.0487-90.14822-28.5163c0,0,24.3093,43.2266,90.14822,28.5163Z"/><path class="uuid-71867f00-5d58-4da4-a5de-de4ab3c2cd4c" d="M912.55932,417.4299c-10.3349,6.1312-31.4956,27.1909-16.4621,93.515l-.5579,3.169c-59.5576-77.2772-61.96-117.3383-61.96-117.3383-2.12033-17.1556,11.6236-13.8728,11.6236-13.8728,8.9663,3.9432,8.421-4.2355,8.421-4.2355,.4848-4.5459,2.2582-8.782,7.6439-8.0874,4.137,.5335,7.1656,4.3245,11.2367,5.153,4.9437,1.0065,8.28-4.2899,13.0749-3.59,5.6414,.8235,9.8517,5.4154,12.781,9.9754,7.3665,11.4685,11.9198,23.383,14.199,35.3115l-.0001,.0001Z"/><path class="uuid-28eacac6-7731-4216-a542-7f5892c6ac65" d="M839.76512,420.139c-6.23703-5.4201-13.14343-9.7118-20.81532-12.116-4.7177-1.4783-9.4472-2.5552-13.87648,.3805-4.575,3.0322-2.88362,8.1765-4.754,12.7701-.25532,.6267-.58332,1.1283-.95732,1.5518l-.0809-.0581c-5.9323-4.7803-19.1773-19.3083-10.753-27.9492,3.6415-3.7351,10.4148-1.1538,13.3404-5.7839,2.773-4.3887,.46982-10.0507,2.4013-14.7633,2.14852-5.2425,5.2741-7.4567,11.0374-7.1626,1.80912,.0923,3.5266,1.0725,5.3812,1.1183,3.5161,.0871,5.9123-1.5149,7.6733-4.5507,4.0151-6.9225,8.23383-8.7756,15.84903-5.9594,3.4732,1.2848,6.5144,3.5623,9.1404,6.1328,3.1748,3.1078,3.8111,2.871,5.8997,6.794l.0019,.0253c-3.8275,.4943-5.2106,4.1774-5.6288,8.0987,0,0,.5453,8.1787-8.421,4.2355,0,0-13.74393-3.2828-11.6236,13.8728,0,0,.49007,8.0882,6.4227,23.9958-.0782-.2097-.1606-.4255-.2369-.6324Z"/></g></g><g><path class="uuid-7c28f2e4-7aaa-4e3f-869e-3486bd2ade3e" d="M992.07372,50.0766c.3002-.2272,.5996-.4542,.8967-.6818-.297,.2276-.5966,.4547-.8967,.6818Z"/><path class="uuid-7c28f2e4-7aaa-4e3f-869e-3486bd2ade3e" d="M988.84872,52.4657c.2879-.2083,.5707-.4174,.8558-.6263-.2851,.2088-.568,.418-.8558,.6263Z"/><path class="uuid-7c28f2e4-7aaa-4e3f-869e-3486bd2ade3e" d="M995.33452,47.5521c.2286-.1809,.4608-.3614,.6874-.5426-.2265,.1811-.4589,.3617-.6874,.5426Z"/><path class="uuid-7c28f2e4-7aaa-4e3f-869e-3486bd2ade3e" d="M1001.82502,42.17c.2127-.185,.4197-.3701,.6305-.5552-.2107,.1851-.4179,.3702-.6305,.5552Z"/><path class="uuid-7c28f2e4-7aaa-4e3f-869e-3486bd2ade3e" d="M977.52792,60.0618c.3295-.2049,.6604-.4094,.9869-.6152-.3265,.2057-.6575,.4103-.9869,.6152Z"/><path class="uuid-7c28f2e4-7aaa-4e3f-869e-3486bd2ade3e" d="M1004.54542,39.7525c.2559-.2318,.5092-.4633,.762-.6951-.2528,.2317-.5062,.4634-.762,.6951Z"/><path class="uuid-7c28f2e4-7aaa-4e3f-869e-3486bd2ade3e" d="M973.73802,62.3633c.3502-.2072,.6967-.4154,1.0437-.6236-.3469,.2081-.6936,.4164-1.0437,.6236Z"/><path class="uuid-7c28f2e4-7aaa-4e3f-869e-3486bd2ade3e" d="M985.56332,54.7952c.1021-.0707,.2004-.142,.3021-.2127-.1017,.0707-.2001,.142-.3021,.2127Z"/><path class="uuid-7c28f2e4-7aaa-4e3f-869e-3486bd2ade3e" d="M981.52192,57.513c.1743-.1144,.353-.2275,.5264-.342-.1734,.1145-.3521,.2276-.5264,.342Z"/><path class="uuid-7c28f2e4-7aaa-4e3f-869e-3486bd2ade3e" d="M1017.28932,26.9613c.1896-.2112,.3795-.4223,.5667-.6331-.1872,.2108-.3771,.4219-.5667,.6331Z"/><path class="uuid-7c28f2e4-7aaa-4e3f-869e-3486bd2ade3e" d="M1033.64842,5.4244c.055-.087,.1108-.1744,.1654-.261-.0545,.0866-.1104,.1741-.1654,.261Z"/><path class="uuid-7c28f2e4-7aaa-4e3f-869e-3486bd2ade3e" d="M1010.36992,34.2378c-.0718,.0712-.1466,.1426-.2187,.2138,.0721-.0712,.1469-.1426,.2187-.2138Z"/><path class="uuid-7c28f2e4-7aaa-4e3f-869e-3486bd2ade3e" d="M1032.25652,7.5829c.0719-.1096,.1426-.2181,.2139-.3273-.0712,.1091-.142,.2178-.2139,.3273Z"/><path class="uuid-07f77542-148c-4bd9-b13b-a893a53c2b5f" d="M1011.74802,115.3757c8.5853,13.3618,16.2035,27.3526,22.4589,41.9539,3.7241,8.693,8.46,23.5642,11.5114,38.9321V115.0803c-10.2074,1.0902-21.7015,1.4351-33.9703,.2954Z"/><path class="uuid-7c28f2e4-7aaa-4e3f-869e-3486bd2ade3e" d="M1007.23792,37.2616c.225-.2125,.452-.4248,.6747-.6372-.2226,.2123-.4497,.4247-.6747,.6372Z"/><path class="uuid-1e27557e-1b8b-440d-9d13-a9258d9b5576" d="M994.11822,0h-24.0608V19.0245c6.9169-6.7951,14.9042-13.3019,24.0608-19.0245Z"/><path class="uuid-7c28f2e4-7aaa-4e3f-869e-3486bd2ade3e" d="M1025.58852,16.9654c.1364-.1781,.2718-.3556,.4065-.5331-.1346,.1774-.2702,.355-.4065,.5331Z"/><path class="uuid-7c28f2e4-7aaa-4e3f-869e-3486bd2ade3e" d="M1023.79312,19.2686c.1204-.1517,.2372-.3018,.3565-.453-.1192,.1511-.2361,.3014-.3565,.453Z"/><path class="uuid-7c28f2e4-7aaa-4e3f-869e-3486bd2ade3e" d="M1015.07332,29.3848c.197-.2111,.3903-.4215,.5849-.6323-.1945,.2107-.388,.4212-.5849,.6323Z"/><path class="uuid-7c28f2e4-7aaa-4e3f-869e-3486bd2ade3e" d="M1019.56052,24.3799c.1127-.1309,.2286-.2624,.3405-.393-.1118,.1306-.2278,.2622-.3405,.393Z"/><path class="uuid-7c28f2e4-7aaa-4e3f-869e-3486bd2ade3e" d="M1012.80812,31.7705c.1108-.1143,.2172-.228,.3273-.3422-.1101,.1142-.2166,.2279-.3273,.3422Z"/><path class="uuid-7c28f2e4-7aaa-4e3f-869e-3486bd2ade3e" d="M1030.83602,9.7089c.0234-.0344,.0457-.0681,.0692-.1026-.0234,.0344-.0458,.0682-.0692,.1026Z"/><path class="uuid-7c28f2e4-7aaa-4e3f-869e-3486bd2ade3e" d="M1027.38122,14.5799c.0949-.1288,.1918-.2583,.2859-.3867-.0941,.1283-.1911,.258-.2859,.3867Z"/><path class="uuid-28eacac6-7731-4216-a542-7f5892c6ac65" d="M973.73802,62.3633c.3501-.2072,.6968-.4155,1.0437-.6236,.9267-.5561,1.8421-1.1154,2.7462-1.6779,.3294-.2049,.6604-.4095,.9869-.6152,1.0169-.6408,2.0188-1.2856,3.0071-1.9336,.1743-.1144,.353-.2275,.5264-.342,1.1921-.7873,2.3643-1.5793,3.515-2.3758,.102-.0707,.2004-.142,.3021-.2127,1.0106-.7024,2.0044-1.4082,2.9833-2.1168,.2878-.2083,.5707-.4175,.8558-.6263,.8-.5859,1.5903-1.1734,2.3692-1.7628,.3001-.2271,.5997-.4542,.8967-.6818,.7997-.6127,1.5869-1.227,2.3641-1.8427,.2285-.1809,.4609-.3615,.6874-.5426,2.0089-1.6066,3.9425-3.2212,5.8031-4.8395,.2126-.185,.4198-.3701,.6305-.5552,.7067-.6205,1.4044-1.2413,2.0899-1.8623,.2558-.2317,.5092-.4634,.762-.6951,.6533-.5987,1.2965-1.1973,1.9305-1.7958,.225-.2125,.4521-.4249,.6747-.6372,.7598-.7249,1.5067-1.4493,2.2386-2.1728,.0721-.0712,.1469-.1426,.2187-.2138,.8308-.824,1.643-1.6466,2.4382-2.4673,.1107-.1143,.2172-.228,.3273-.3422,.6578-.6827,1.3042-1.364,1.9379-2.0435,.1969-.2111,.3904-.4216,.5849-.6323,.5528-.5986,1.0968-1.1958,1.6311-1.7912,.1896-.2112,.3795-.4223,.5667-.6331,.5792-.6518,1.147-1.3013,1.7045-1.9483,.1127-.1308,.2287-.2624,.3405-.393,1.362-1.5908,2.658-3.1651,3.8921-4.7183,.1204-.1516,.2373-.3019,.3565-.453,.4893-.6203,.9695-1.2373,1.4389-1.8502,.1363-.1781,.2719-.3557,.4065-.5331,.4721-.6216,.9343-1.2392,1.3862-1.8524,.0948-.1287,.1918-.2584,.2859-.3867,1.1166-1.5244,2.1733-3.0216,3.1689-4.4843,.0234-.0344,.0458-.0682,.0692-.1026,.4635-.6822,.9132-1.3564,1.3513-2.0234,.0719-.1095,.1427-.2182,.2139-.3273,.4033-.6174,.7962-1.2281,1.178-1.8312,.055-.0869,.1109-.1744,.1654-.261,1.1304-1.7939,2.158-3.5139,3.1053-5.1634h-42.8009c-9.1566,5.7226-17.1439,12.2294-24.0608,19.0245V61.245c.6127,.7274,1.2248,1.4567,1.837,2.1869,.6158-.3558,1.2374-.7098,1.8436-1.0686Z"/><path class="uuid-f1e4b2cb-37d6-4511-b2c8-88ab6a5ab517" d="M976.10672,68.4837c11.9156,14.3647,23.0069,28.3736,28.1862,35.7743,2.5576,3.6546,5.0424,7.3627,7.4551,11.1177,12.2688,1.1397,23.7629,.7948,33.9703-.2954v-40.9007c-25.4311-10.2979-49.9637-9.6962-69.6116-5.6959Z"/><path class="uuid-71867f00-5d58-4da4-a5de-de4ab3c2cd4c" d="M1045.20932,243.0939c.1776-.3412,.3458-.6942,.509-1.0535v-45.7787c-3.0514-15.3679-7.7873-30.2391-11.5114-38.9321-6.2554-14.6013-13.8736-28.5921-22.4589-41.9539-2.4127-3.755-4.8975-7.4631-7.4551-11.1177-5.1793-7.4007-16.2706-21.4096-28.1862-35.7743-1.396-1.683-2.8017-3.369-4.2123-5.0518-.6122-.7302-1.2243-1.4595-1.837-2.1869v108.8088l37.7235,41.4718c11.4782,12.6188,23.9571,23.1355,37.4284,31.5683Z"/></g></g><g><path class="uuid-0021ed46-4ffa-4905-89b0-08b92dbc4ee8" d="M255.6094,391.3889c.5431,35.7211-8.7291,66.2539-27.8103,91.6104-12.5439,17.1767-30.264,29.3118-53.1665,36.3986-12.2695,3.8152-26.5836,5.7258-42.9427,5.7258-30.264,0-55.3519-7.4956-75.2513-22.4936-16.6336-12.2692-29.791-28.9666-39.4659-50.0993C7.2913,431.4044,1.6362,407.2045,0,379.938l73.6156-5.317c3.272,29.8744,11.1767,51.5245,23.7207,64.9503,9.2657,10.1411,19.899,14.9406,31.8999,14.391,16.9022-.5435,30.3984-8.8696,40.4886-24.9731,5.1761-7.9112,7.7704-19.2349,7.7704-33.9705,0-21.2857-9.6811-42.4375-29.0371-63.4484-15.2728-14.4614-38.1752-36.156-68.708-65.085-25.631-24.8322-43.7602-47.077-54.3935-66.7269-11.4512-22.1033-17.177-46.118-17.177-72.0433,0-46.6614,15.6755-82.0059,47.0323-106.0206C74.5678,7.2338,98.563,0,127.1912,0c27.5358,0,51.1219,6.1346,70.753,18.4037,15.266,9.5471,27.6056,22.9024,37.0121,40.0798,9.4063,17.1766,15.0617,36.9482,16.9723,59.3011l-74.0243,13.4961c-2.1855-20.9917-8.1795-37.3508-17.9949-49.0765-7.0933-8.4479-17.3175-12.6786-30.6732-12.6786-14.1798,0-24.9474,6.2754-32.3091,18.8132-6.0002,10.0898-8.9974,22.6337-8.9974,37.6256,0,23.4521,10.084,47.3068,30.264,71.5703,7.6303,9.2722,19.0815,20.1803,34.354,32.7181,17.995,14.9981,29.8553,25.4974,35.5811,31.4911,19.0812,19.0873,33.8041,37.9005,44.169,56.4382,4.9079,8.7295,8.857,16.7686,11.8604,24.1302,7.3616,18.269,11.1764,34.6281,11.4512,49.0766Z"/><path class="uuid-ac11d140-88cd-4707-be31-5fb4ab17d52f" d="M303.5555,330.6099l2.1892-.5136c-48.7363-24.1104-95.7774,18.4306-124.027,52.1765,47.7526,16.5195,98.8893-11.6386,121.8378-51.6629Z"/><path class="uuid-66bd84c2-7d01-49d1-819a-747810f81c34" d="M121.0955,566.1043l-.663,1.6997c38.521-21.5009,31.7022-72.5046,22.126-106.9026-32.9938,24.3324-37.6734,71.4632-21.463,105.2029Z"/><g><path class="uuid-f7d14e0a-7b42-4ded-b048-89ca38bf1d1d" d="M227.9039,469.5988c-6.8502-5.5506-13.4573-11.4235-19.9584-17.3752-8.0611-7.3797-15.4091-15.48-22.8938-23.4302-5.3597-5.6932-12.6558-17.3136-21.5295-16.0333-6.0436,.8721-8.3082,8.6916-10.2631,13.559-3.2444,8.0779-11.1054,52.6866-13.0649,58.1936-2.8964,8.1451-4.9935,17.5201-4.415,26.1992,1.1252,16.8817,13.5015,26.2622,29.6204,28.3547,0,0,36.6361,7.5097,23.5484-28.9947-1.7173-4.79-4.2541-8.9996-5.6867-13.8598-.8834-2.9967-5.0707-15.0354-3.1491-17.5787,.6445-.853,3.2471,4.593,3.3263,4.7638,2.2188,4.7865,3.8494,9.8847,5.4827,14.8906,1.4686,4.5012,2.924,9.0269,4.1885,13.59,1.7295,6.2413,3.4051,13.997,9.3242,17.719,11.8083,7.4251,29.9944-7.3176,35.0512-17.4676,7.2825-14.6175-.4656-30.7192-9.5812-42.5304Z"/><path class="uuid-14e6392a-a913-4f99-b819-b37903ac0123" d="M244.606,369.8603c-7.8684,3.9778-15.9315,7.6016-24.023,11.0967-10.033,4.3336-20.4315,7.7217-30.749,11.2958-7.3885,2.5595-20.9773,4.4592-23.4418,13.0793-1.6784,5.871,4.5288,11.1382,8.1694,14.9144,6.0419,6.2669,43.5234,31.7006,47.7456,35.7428,6.2456,5.9769,13.9405,11.7281,22.0959,14.7533,15.863,5.8842,29.4879-1.5675,37.9956-15.4172,0,0,21.8494-30.3514-16.8137-33.3544-5.0733-.394-9.9525,.1972-14.9732-.4854-3.0958-.4208-15.7937-1.5287-17.3274-4.3231-.5144-.9372,5.5197-1.0823,5.708-1.0846,5.2753-.065,10.5943,.5344,15.8302,1.0935,4.7079,.5027,9.4328,1.0276,14.1137,1.7419,6.4023,.977,14.1643,2.6233,19.9833-1.2535,11.6084-7.7338,5.6025-30.3615-1.5879-39.1302-10.3554-12.6283-28.2179-12.1508-42.7257-8.6693Z"/><path class="uuid-f4da094c-b46e-4081-974b-212dc4c4375c" d="M160.3931,415.7276c-3.2062,6.8709-6.2521,13.8227-9.1837,20.8146-2.3722,5.6577-4.7062,11.3494-6.7417,17.1385-4.3678,12.4222-6.4144,25.2759-11.4695,37.5075-3.0326,7.3378-6.6983,14.6415-11.7948,20.7824-4.3881,5.2872-10.7931,8.7598-17.555,9.8409-12.6124,2.0165-30.5031-7.7857-37.8133-17.6321-10.9949-14.8094,9.4379-28.9206,18.5965-38.4338,4.928-5.1188,10.0127-10.0273,15.2482-14.8267,1.4471-1.3265,6.3274-4.506,2.6974-6.6904-2.6636-1.6002-17.485,9.3018-20.1657,11.1698-3.726,2.5964-7.3216,5.3887-10.6665,8.4636-7.6545,7.0365-18.0132,19.4461-28.6515,8.177-4.9411-5.2342-7.815-15.6595-9.0791-22.431-4.1837-22.4108,15.6759-30.8322,34.1238-34.2791,10.9122-2.0388,21.9915-3.0554,32.9289-4.9533,16.9597-2.9428,34.0355-6.5165,51.3485-5.3192,0,0,10.2166-1.4749,8.1775,10.6713Z"/><path class="uuid-f7d14e0a-7b42-4ded-b048-89ca38bf1d1d" d="M159.3175,397.5142c-.1024-7.5816-.3844-15.1661-.7868-22.7371-.3256-6.1262-.7003-12.2664-1.3862-18.3645-1.4718-13.0852-5.2214-25.5491-5.9913-38.7616-.462-7.9264-.339-16.0974,1.5782-23.844,1.6506-6.6697,5.9068-12.5831,11.525-16.4984,10.4788-7.3029,30.8521-6.2607,41.7181-.5755,16.3429,8.5507,4.0846,30.1461-.0229,42.6964-2.21,6.753-4.6527,13.3848-7.2787,19.9839-.7258,1.824-3.7367,6.8101,.4821,7.1976,3.0945,.282,11.6965-15.9826,13.2974-18.8307,2.2253-3.9589,4.2479-8.0374,5.9219-12.2613,3.8307-9.6658,7.7586-25.3462,22.2401-19.8279,6.7262,2.5631,13.8496,10.6997,17.9338,16.2467,13.5173,18.3584-.7003,34.5813-15.8111,45.711-8.9382,6.5833-18.4717,12.3189-27.494,18.7863-13.9902,10.0284-27.8103,20.6753-43.9197,27.1296,0,0-8.5574,5.773-12.0059-6.0505Z"/><path class="uuid-666c40a7-0668-47d0-bc2a-febc2bf0a545" d="M171.9837,438.4558c3.9414-1.2145,7.8325-3.5466,11.4809-7.2319,3.4516-3.4866,5.5472-8.0813,6.6207-12.8211,2.0884-9.2209,.6033-20.6984-4.9823-28.5244-9.5091-13.3231-32.6712-16.1419-44.5963-3.5168-20.9319,22.0002,6.2972,59.8534,31.477,52.0942Z"/><path class="uuid-66bd84c2-7d01-49d1-819a-747810f81c34" d="M179.2183,467.9911c7.4554-16.6947-1.0881-36.0131-14.7949-45.5433l-.1163-.8053c-10.2228,16.8108,3.6342,35.1048,14.9112,46.3486Z"/><path class="uuid-f4da094c-b46e-4081-974b-212dc4c4375c" d="M224.0235,411.1729c-13.5738-12.2494-34.5868-10.0938-47.8862-.0028l-.8017-.1383c12.8289,14.9173,34.5096,7.3917,48.6879,.1411Z"/><path class="uuid-f4da094c-b46e-4081-974b-212dc4c4375c" d="M168.6522,397.2642c18.1515-7.5914,17.694-30.5365,15.1795-46.2614-15.8443,9.1242-20.2877,29.7748-14.8003,45.5416l-.3792,.7198Z"/><path class="uuid-f7d14e0a-7b42-4ded-b048-89ca38bf1d1d" d="M150.0779,414.7921l.7298-.3594c-19.1469-4.5276-32.2635,14.3043-39.4722,28.5039,18.1814,1.9315,33.9142-12.1635,38.7424-28.1445Z"/></g><g><path class="uuid-7c28f2e4-7aaa-4e3f-869e-3486bd2ade3e" d="M51.5422,74.8732s.281-17.6599-13.5073-37.1097c-5.1162,5.8629-9.5831,12.1947-13.3835,19.0079,2.6429,1.0778,5.2402,2.2652,7.7695,3.5915,3.4354,1.8015,19.1957,10.0037,19.1213,14.5103Z"/><path class="uuid-7c28f2e4-7aaa-4e3f-869e-3486bd2ade3e" d="M34.2866,117.0651c-8.6601,.6777-17.3089,1.5332-25.94,2.5477-.108,2.6629-.1671,5.3613-.1671,8.1023,0,.0555,.0024,.1102,.0024,.1657,15.3803-4.309,28.9801-8.2988,40.4674-11.7698-4.7898,.2667-9.5777,.5797-14.3627,.9541Z"/><path class="uuid-666c40a7-0668-47d0-bc2a-febc2bf0a545" d="M104.9832,38.7953c.3835,6.6434,.635,13.2973,.7007,19.9523,2.6882-19.3548,6.3249-34.8558,6.3249-34.8558,1.737-7.2426,4.1337-15.8056,7.7544-23.7214-4.8778,.2226-9.6117,.6696-14.2044,1.3371,.2262,11.4082-.9191,31.3347-.5756,37.2878Z"/><path class="uuid-ac11d140-88cd-4707-be31-5fb4ab17d52f" d="M69.5923,195.7104c-.0647-5.493,.3277-10.9922,1.1328-16.4255,1.7788-12.0055,5.5492-23.7818,11.4044-34.4288,1.8797-3.4179,3.9834-6.7141,6.3-9.8531-.3314-3.0195-.4999-6.0324-.4999-9.0386,0-.745,.0131-1.4794,.028-2.2123-9.8092,16.9853-25.5042,35.9365-38.9081,46.8121-14.781,12.8119-33.0969,8.0231-21.6639-13.3299,9.0557-17.3519,31.0645-31.8995,51.5294-42.1438-10.0963,.1253-20.186,.4594-30.2657,1.0205-11.4873,3.471-25.0871,7.4608-40.4674,11.7698,.0244,25.8616,5.748,49.8215,17.1746,71.8776,6.907,12.7638,16.9805,26.6238,30.2147,41.5754,3.0859-3.8742,5.5841-8.4437,7.5637-13.6029,3.9256-10.2303,6.5875-21.0042,6.4574-32.0205Z"/><path class="uuid-f7d14e0a-7b42-4ded-b048-89ca38bf1d1d" d="M226.0206,44.508c-7.8852-10.6204-17.2395-19.327-28.0765-26.1043C178.313,6.1345,154.7269,0,127.1911,0c-2.5122,0-4.9868,.059-7.4279,.1704-3.6207,7.9158-6.0174,16.4788-7.7544,23.7214,0,0-3.6367,15.501-6.3249,34.8558,.0222,2.248,.0239,4.4962,.0013,6.7441-.0406,4.1147-.0611,8.2375-.1835,12.3554,4.7728-4.1213,10.3784-6.7115,16.8194-7.7647,3.2365-.5291,9.2826-7.4894,12.5317-9.3391,4.7794-2.7208,9.9275-4.7651,15.2917-5.9896,14.6607-3.3466,29.8266,1.5145,44.8046-1.0534,7.9291-1.3594,25.6586-2.1882,31.0715-9.1923Z"/><path class="uuid-ac11d140-88cd-4707-be31-5fb4ab17d52f" d="M234.9562,58.4835c-2.4636-4.4988-5.1338-8.7285-8.0001-12.7023-10.2135,13.3364-13.7318,31.8889-17.9081,47.853-2.8617,10.9389-5.7235,21.8779-8.5852,32.8169,.7246,.1101,1.4513,.2127,2.1765,.3199l49.2892-8.9865c-1.9106-22.3528-7.566-42.1244-16.9723-59.301Z"/><path class="uuid-66bd84c2-7d01-49d1-819a-747810f81c34" d="M48.6493,116.111c10.0797-.5611,20.1694-.8952,30.2657-1.0205,3.4918-1.748,6.9341-3.3665,10.2637-4.8569,.2069-1.2202,.4469-2.4133,.7053-3.5913-16.4372,2.0261-76.164,7.1489-67.8204-10.8673,9.1653-19.06,49.0234,4.3207,68.2146,9.1496,.3991-1.6277,.8506-3.2125,1.3515-4.757-1.1633-1.2184-2.2143-2.5381-3.2055-3.8987-2.4355-3.3425-4.5003-6.96-6.357-10.6507-4.4049-8.7568-7.9296-18.3444-9.1483-28.1123-.8542-6.8442-.7889-16.2577,6.0276-20.2063,12.4173-6.6961,16.8027,27.3923,17.9672,51.0627,.0046-.0078,.0089-.0158,.0133-.0236,2.4712-4.2088,5.3358-7.6947,8.5747-10.4916,.1224-4.1179,.1429-8.2407,.1835-12.3554,.0226-2.2479,.0209-4.4961-.0013-6.7441-.0657-6.655-.3172-13.3089-.7007-19.9523-.3435-5.9531,.8018-25.8796,.5756-37.2878-19.2987,2.8047-36.084,9.5312-50.347,20.187-6.3783,4.8848-12.0962,10.2467-17.1769,16.069,13.7883,19.4498,13.5073,37.1097,13.5073,37.1097,.0744-4.5066-15.6859-12.7088-19.1213-14.5103-2.5293-1.3263-5.1266-2.5137-7.7695-3.5915-9.8899,17.7299-15.3231,38.6786-16.3048,62.8414,8.6311-1.0145,17.2799-1.87,25.94-2.5477,4.785-.3744,9.5729-.6874,14.3627-.9541Z"/><path class="uuid-666c40a7-0668-47d0-bc2a-febc2bf0a545" d="M27.3856,157.2343c-11.433,21.353,6.8829,26.1418,21.6639,13.3299,13.4039-10.8756,29.0989-29.8268,38.9081-46.8121,.096-4.7602,.5002-9.2687,1.2211-13.5185-3.3296,1.4904-6.7719,3.1089-10.2637,4.8569-20.4649,10.2443-42.4737,24.7919-51.5294,42.1438Z"/><path class="uuid-14e6392a-a913-4f99-b819-b37903ac0123" d="M22.0636,95.775c-8.3436,18.0162,51.3832,12.8934,67.8204,10.8673,.1264-.5766,.2555-1.1512,.3942-1.7177-19.1912-4.8289-59.0493-28.2096-68.2146-9.1496Z"/><path class="uuid-14e6392a-a913-4f99-b819-b37903ac0123" d="M78.9465,37.2996c-6.8165,3.9486-6.8818,13.3621-6.0276,20.2063,1.2187,9.7679,4.7434,19.3555,9.1483,28.1123,1.8567,3.6907,3.9215,7.3082,6.357,10.6507,.9912,1.3606,2.0422,2.6803,3.2055,3.8987,1.3778-4.2486,3.1348-8.1871,5.284-11.8053-1.1645-23.6704-5.5499-57.7588-17.9672-51.0627Z"/></g></g></svg>